<?xml version="1.0" standalone="no"?>
<!DOCTYPE svg PUBLIC "-//W3C//DTD SVG 20010904//EN"
 "http://www.w3.org/TR/2001/REC-SVG-20010904/DTD/svg10.dtd">
<svg version="1.0" xmlns="http://www.w3.org/2000/svg"
 width="452.000000pt" height="452.000000pt" viewBox="0 0 452.000000 452.000000"
 preserveAspectRatio="xMidYMid meet">
<metadata>
Created by potrace 1.11, written by Peter Selinger 2001-2013
</metadata>
<g transform="translate(0.000000,452.000000) scale(0.100000,-0.100000)"
fill="#000000" stroke="none">
<path d="M1335 2886 c-75 -33 -113 -131 -122 -311 -9 -172 32 -311 134 -452
l52 -73 -125 0 -125 0 22 -32 c155 -223 403 -363 680 -387 111 -9 152 -27 180
-81 17 -31 19 -60 19 -297 l0 -263 210 0 210 0 0 263 c0 237 2 266 19 297 28
53 69 72 179 82 328 29 597 208 746 497 66 128 107 306 97 419 -1 9 -28 12
-101 12 l-100 0 0 38 c0 50 -36 197 -57 232 -9 16 -33 38 -53 49 -38 21 -42
21 -936 21 -727 -1 -905 -3 -929 -14z"/>
<path d="M1548 793 c-61 -67 -72 -108 -43 -162 32 -62 15 -61 755 -61 740 0
723 -1 755 61 29 54 18 95 -43 162 l-26 27 -686 0 -686 0 -26 -27z"/>
</g>
</svg>
